<mxfile host="Electron" agent="Mozilla/5.0 (Macintosh; Intel Mac OS X 10_15_7) AppleWebKit/537.36 (KHTML, like Gecko) draw.io/24.7.5 Chrome/126.0.6478.183 Electron/31.3.0 Safari/537.36" version="24.7.5">
  <diagram name="Page-1" id="CrsVlyNlqynqQEds2Bug">
    <mxGraphModel dx="309" dy="228" grid="1" gridSize="10" guides="1" tooltips="1" connect="1" arrows="1" fold="1" page="1" pageScale="1" pageWidth="850" pageHeight="1100" math="0" shadow="0">
      <root>
        <mxCell id="0" />
        <mxCell id="1" parent="0" />
        <mxCell id="4zbxxaEPVUc9FG5ekIjv-1" value="" style="rounded=0;whiteSpace=wrap;html=1;fillColor=default;" vertex="1" parent="1">
          <mxGeometry x="224" y="58" width="656" height="372" as="geometry" />
        </mxCell>
        <mxCell id="4zbxxaEPVUc9FG5ekIjv-2" value="" style="rounded=0;whiteSpace=wrap;html=1;" vertex="1" parent="1">
          <mxGeometry x="895" y="58" width="85" height="372" as="geometry" />
        </mxCell>
        <mxCell id="4zbxxaEPVUc9FG5ekIjv-3" value="" style="rounded=0;whiteSpace=wrap;html=1;" vertex="1" parent="1">
          <mxGeometry x="50" y="57.5" width="161" height="373" as="geometry" />
        </mxCell>
        <mxCell id="4zbxxaEPVUc9FG5ekIjv-5" value="" style="shape=cube;whiteSpace=wrap;html=1;boundedLbl=1;backgroundOutline=1;darkOpacity=0.05;darkOpacity2=0.1;size=31;fillColor=#ffe6cc;strokeColor=#d79b00;" vertex="1" parent="1">
          <mxGeometry x="309" y="190" width="40" height="110" as="geometry" />
        </mxCell>
        <mxCell id="4zbxxaEPVUc9FG5ekIjv-6" value="" style="shape=cube;whiteSpace=wrap;html=1;boundedLbl=1;backgroundOutline=1;darkOpacity=0.05;darkOpacity2=0.1;size=100;fillColor=#ffe6cc;strokeColor=#d79b00;" vertex="1" parent="1">
          <mxGeometry x="80" y="74.5" width="110" height="300" as="geometry" />
        </mxCell>
        <mxCell id="4zbxxaEPVUc9FG5ekIjv-7" value="128" style="text;html=1;align=center;verticalAlign=middle;resizable=0;points=[];autosize=1;strokeColor=none;fillColor=none;" vertex="1" parent="1">
          <mxGeometry x="50" y="144.5" width="40" height="30" as="geometry" />
        </mxCell>
        <mxCell id="4zbxxaEPVUc9FG5ekIjv-8" value="128" style="text;html=1;align=center;verticalAlign=middle;resizable=0;points=[];autosize=1;strokeColor=none;fillColor=none;" vertex="1" parent="1">
          <mxGeometry x="100" y="324.5" width="40" height="30" as="geometry" />
        </mxCell>
        <mxCell id="4zbxxaEPVUc9FG5ekIjv-9" value="3" style="text;html=1;align=center;verticalAlign=middle;resizable=0;points=[];autosize=1;strokeColor=none;fillColor=none;" vertex="1" parent="1">
          <mxGeometry x="170" y="374.5" width="30" height="30" as="geometry" />
        </mxCell>
        <mxCell id="4zbxxaEPVUc9FG5ekIjv-10" value="" style="shape=cube;whiteSpace=wrap;html=1;boundedLbl=1;backgroundOutline=1;darkOpacity=0.05;darkOpacity2=0.1;fillColor=#f8cecc;strokeColor=#b85450;size=30;" vertex="1" parent="1">
          <mxGeometry x="125" y="154.5" width="40" height="90" as="geometry" />
        </mxCell>
        <mxCell id="4zbxxaEPVUc9FG5ekIjv-11" value="3" style="text;html=1;align=center;verticalAlign=middle;resizable=0;points=[];autosize=1;strokeColor=none;fillColor=none;" vertex="1" parent="1">
          <mxGeometry x="120" y="234.5" width="30" height="30" as="geometry" />
        </mxCell>
        <mxCell id="4zbxxaEPVUc9FG5ekIjv-12" value="3" style="text;html=1;align=center;verticalAlign=middle;resizable=0;points=[];autosize=1;strokeColor=none;fillColor=none;" vertex="1" parent="1">
          <mxGeometry x="100" y="174.5" width="30" height="30" as="geometry" />
        </mxCell>
        <mxCell id="4zbxxaEPVUc9FG5ekIjv-13" value="" style="shape=cube;whiteSpace=wrap;html=1;boundedLbl=1;backgroundOutline=1;darkOpacity=0.05;darkOpacity2=0.1;fillColor=#d5e8d4;strokeColor=#82b366;size=30;" vertex="1" parent="1">
          <mxGeometry x="250" y="189.5" width="40" height="110" as="geometry" />
        </mxCell>
        <mxCell id="4zbxxaEPVUc9FG5ekIjv-14" value="2" style="text;html=1;align=center;verticalAlign=middle;resizable=0;points=[];autosize=1;strokeColor=none;fillColor=none;" vertex="1" parent="1">
          <mxGeometry x="226" y="223" width="30" height="30" as="geometry" />
        </mxCell>
        <mxCell id="4zbxxaEPVUc9FG5ekIjv-15" value="2" style="text;html=1;align=center;verticalAlign=middle;resizable=0;points=[];autosize=1;strokeColor=none;fillColor=none;" vertex="1" parent="1">
          <mxGeometry x="240" y="274.5" width="30" height="30" as="geometry" />
        </mxCell>
        <mxCell id="4zbxxaEPVUc9FG5ekIjv-16" value="3" style="text;html=1;align=center;verticalAlign=middle;resizable=0;points=[];autosize=1;strokeColor=none;fillColor=none;" vertex="1" parent="1">
          <mxGeometry x="303" y="241" width="30" height="30" as="geometry" />
        </mxCell>
        <mxCell id="4zbxxaEPVUc9FG5ekIjv-17" value="3" style="text;html=1;align=center;verticalAlign=middle;resizable=0;points=[];autosize=1;strokeColor=none;fillColor=none;" vertex="1" parent="1">
          <mxGeometry x="292" y="218" width="30" height="30" as="geometry" />
        </mxCell>
        <mxCell id="4zbxxaEPVUc9FG5ekIjv-18" value="64" style="text;html=1;align=center;verticalAlign=middle;resizable=0;points=[];autosize=1;strokeColor=none;fillColor=none;" vertex="1" parent="1">
          <mxGeometry x="325" y="294.5" width="40" height="30" as="geometry" />
        </mxCell>
        <mxCell id="4zbxxaEPVUc9FG5ekIjv-19" value="" style="shape=cube;whiteSpace=wrap;html=1;boundedLbl=1;backgroundOutline=1;darkOpacity=0.05;darkOpacity2=0.1;fillColor=#f8cecc;strokeColor=#b85450;size=10;" vertex="1" parent="1">
          <mxGeometry x="314" y="220" width="20" height="30" as="geometry" />
        </mxCell>
        <mxCell id="4zbxxaEPVUc9FG5ekIjv-25" value="Conv2D" style="text;html=1;align=center;verticalAlign=middle;resizable=0;points=[];autosize=1;strokeColor=none;fillColor=none;" vertex="1" parent="1">
          <mxGeometry x="1012" y="154.5" width="70" height="30" as="geometry" />
        </mxCell>
        <mxCell id="4zbxxaEPVUc9FG5ekIjv-26" value="" style="shape=cube;whiteSpace=wrap;html=1;boundedLbl=1;backgroundOutline=1;darkOpacity=0.05;darkOpacity2=0.1;size=10;fillColor=#ffe6cc;strokeColor=#d79b00;" vertex="1" parent="1">
          <mxGeometry x="992" y="154.5" width="30" height="30" as="geometry" />
        </mxCell>
        <mxCell id="4zbxxaEPVUc9FG5ekIjv-27" value="Kernel" style="text;html=1;align=center;verticalAlign=middle;resizable=0;points=[];autosize=1;strokeColor=none;fillColor=none;" vertex="1" parent="1">
          <mxGeometry x="1012" y="194.5" width="60" height="30" as="geometry" />
        </mxCell>
        <mxCell id="4zbxxaEPVUc9FG5ekIjv-28" value="" style="shape=cube;whiteSpace=wrap;html=1;boundedLbl=1;backgroundOutline=1;darkOpacity=0.05;darkOpacity2=0.1;size=10;fillColor=#f8cecc;strokeColor=#b85450;" vertex="1" parent="1">
          <mxGeometry x="992" y="194.5" width="30" height="30" as="geometry" />
        </mxCell>
        <mxCell id="4zbxxaEPVUc9FG5ekIjv-29" value="MaxPool2D" style="text;html=1;align=center;verticalAlign=middle;resizable=0;points=[];autosize=1;strokeColor=none;fillColor=none;" vertex="1" parent="1">
          <mxGeometry x="1012" y="234.5" width="90" height="30" as="geometry" />
        </mxCell>
        <mxCell id="4zbxxaEPVUc9FG5ekIjv-30" value="" style="shape=cube;whiteSpace=wrap;html=1;boundedLbl=1;backgroundOutline=1;darkOpacity=0.05;darkOpacity2=0.1;size=10;fillColor=#d5e8d4;strokeColor=#82b366;" vertex="1" parent="1">
          <mxGeometry x="992" y="234.5" width="30" height="30" as="geometry" />
        </mxCell>
        <mxCell id="4zbxxaEPVUc9FG5ekIjv-31" value="Flatten" style="text;html=1;align=center;verticalAlign=middle;resizable=0;points=[];autosize=1;strokeColor=none;fillColor=none;" vertex="1" parent="1">
          <mxGeometry x="1012" y="274.5" width="60" height="30" as="geometry" />
        </mxCell>
        <mxCell id="4zbxxaEPVUc9FG5ekIjv-32" value="" style="shape=cube;whiteSpace=wrap;html=1;boundedLbl=1;backgroundOutline=1;darkOpacity=0.05;darkOpacity2=0.1;size=10;fillColor=#d80073;fontColor=#ffffff;strokeColor=#A50040;" vertex="1" parent="1">
          <mxGeometry x="992" y="274.5" width="30" height="30" as="geometry" />
        </mxCell>
        <mxCell id="4zbxxaEPVUc9FG5ekIjv-33" value="Dense" style="text;html=1;align=center;verticalAlign=middle;resizable=0;points=[];autosize=1;strokeColor=none;fillColor=none;" vertex="1" parent="1">
          <mxGeometry x="1012" y="314.5" width="60" height="30" as="geometry" />
        </mxCell>
        <mxCell id="4zbxxaEPVUc9FG5ekIjv-34" value="" style="shape=cube;whiteSpace=wrap;html=1;boundedLbl=1;backgroundOutline=1;darkOpacity=0.05;darkOpacity2=0.1;size=10;fillColor=#bac8d3;strokeColor=#23445d;" vertex="1" parent="1">
          <mxGeometry x="992" y="314.5" width="30" height="30" as="geometry" />
        </mxCell>
        <mxCell id="4zbxxaEPVUc9FG5ekIjv-38" value="" style="shape=cube;whiteSpace=wrap;html=1;boundedLbl=1;backgroundOutline=1;darkOpacity=0.05;darkOpacity2=0.1;size=10;fillColor=#bac8d3;strokeColor=#23445d;" vertex="1" parent="1">
          <mxGeometry x="925" y="239.75" width="30" height="32.5" as="geometry" />
        </mxCell>
        <mxCell id="4zbxxaEPVUc9FG5ekIjv-39" value="1" style="text;html=1;align=center;verticalAlign=middle;resizable=0;points=[];autosize=1;strokeColor=none;fillColor=none;" vertex="1" parent="1">
          <mxGeometry x="928" y="269.5" width="30" height="30" as="geometry" />
        </mxCell>
        <mxCell id="4zbxxaEPVUc9FG5ekIjv-40" value="1" style="text;html=1;align=center;verticalAlign=middle;resizable=0;points=[];autosize=1;strokeColor=none;fillColor=none;" vertex="1" parent="1">
          <mxGeometry x="899" y="238" width="30" height="30" as="geometry" />
        </mxCell>
        <mxCell id="4zbxxaEPVUc9FG5ekIjv-43" value="Input layer" style="text;html=1;align=center;verticalAlign=middle;resizable=0;points=[];autosize=1;strokeColor=none;fillColor=none;" vertex="1" parent="1">
          <mxGeometry x="98" y="400.5" width="74" height="26" as="geometry" />
        </mxCell>
        <mxCell id="4zbxxaEPVUc9FG5ekIjv-44" value="Hidden layers" style="text;html=1;align=center;verticalAlign=middle;resizable=0;points=[];autosize=1;strokeColor=none;fillColor=none;" vertex="1" parent="1">
          <mxGeometry x="491.5" y="400.5" width="91" height="26" as="geometry" />
        </mxCell>
        <mxCell id="4zbxxaEPVUc9FG5ekIjv-45" value="Output layer" style="text;html=1;align=center;verticalAlign=middle;resizable=0;points=[];autosize=1;strokeColor=none;fillColor=none;" vertex="1" parent="1">
          <mxGeometry x="892" y="402" width="83" height="26" as="geometry" />
        </mxCell>
        <mxCell id="4zbxxaEPVUc9FG5ekIjv-51" value="2" style="text;html=1;align=center;verticalAlign=middle;resizable=0;points=[];autosize=1;strokeColor=none;fillColor=none;" vertex="1" parent="1">
          <mxGeometry x="340" y="228" width="30" height="30" as="geometry" />
        </mxCell>
        <mxCell id="4zbxxaEPVUc9FG5ekIjv-52" value="2" style="text;html=1;align=center;verticalAlign=middle;resizable=0;points=[];autosize=1;strokeColor=none;fillColor=none;" vertex="1" parent="1">
          <mxGeometry x="354" y="279.5" width="30" height="30" as="geometry" />
        </mxCell>
        <mxCell id="4zbxxaEPVUc9FG5ekIjv-53" value="" style="shape=cube;whiteSpace=wrap;html=1;boundedLbl=1;backgroundOutline=1;darkOpacity=0.05;darkOpacity2=0.1;size=31;fillColor=#ffe6cc;strokeColor=#d79b00;" vertex="1" parent="1">
          <mxGeometry x="425" y="190.5" width="40" height="110" as="geometry" />
        </mxCell>
        <mxCell id="4zbxxaEPVUc9FG5ekIjv-54" value="3" style="text;html=1;align=center;verticalAlign=middle;resizable=0;points=[];autosize=1;strokeColor=none;fillColor=none;" vertex="1" parent="1">
          <mxGeometry x="418" y="244.5" width="30" height="30" as="geometry" />
        </mxCell>
        <mxCell id="4zbxxaEPVUc9FG5ekIjv-55" value="3" style="text;html=1;align=center;verticalAlign=middle;resizable=0;points=[];autosize=1;strokeColor=none;fillColor=none;" vertex="1" parent="1">
          <mxGeometry x="407" y="221.5" width="30" height="30" as="geometry" />
        </mxCell>
        <mxCell id="4zbxxaEPVUc9FG5ekIjv-56" value="128" style="text;html=1;align=center;verticalAlign=middle;resizable=0;points=[];autosize=1;strokeColor=none;fillColor=none;" vertex="1" parent="1">
          <mxGeometry x="440" y="296" width="40" height="30" as="geometry" />
        </mxCell>
        <mxCell id="4zbxxaEPVUc9FG5ekIjv-57" value="" style="shape=cube;whiteSpace=wrap;html=1;boundedLbl=1;backgroundOutline=1;darkOpacity=0.05;darkOpacity2=0.1;fillColor=#f8cecc;strokeColor=#b85450;size=10;" vertex="1" parent="1">
          <mxGeometry x="429" y="223.5" width="20" height="30" as="geometry" />
        </mxCell>
        <mxCell id="4zbxxaEPVUc9FG5ekIjv-59" value="2" style="text;html=1;align=center;verticalAlign=middle;resizable=0;points=[];autosize=1;strokeColor=none;fillColor=none;" vertex="1" parent="1">
          <mxGeometry x="455" y="231.5" width="30" height="30" as="geometry" />
        </mxCell>
        <mxCell id="4zbxxaEPVUc9FG5ekIjv-60" value="2" style="text;html=1;align=center;verticalAlign=middle;resizable=0;points=[];autosize=1;strokeColor=none;fillColor=none;" vertex="1" parent="1">
          <mxGeometry x="469" y="283" width="30" height="30" as="geometry" />
        </mxCell>
        <mxCell id="4zbxxaEPVUc9FG5ekIjv-61" value="" style="shape=cube;whiteSpace=wrap;html=1;boundedLbl=1;backgroundOutline=1;darkOpacity=0.05;darkOpacity2=0.1;size=31;fillColor=#ffe6cc;strokeColor=#d79b00;" vertex="1" parent="1">
          <mxGeometry x="539" y="190.5" width="40" height="110" as="geometry" />
        </mxCell>
        <mxCell id="4zbxxaEPVUc9FG5ekIjv-62" value="3" style="text;html=1;align=center;verticalAlign=middle;resizable=0;points=[];autosize=1;strokeColor=none;fillColor=none;" vertex="1" parent="1">
          <mxGeometry x="533" y="248" width="30" height="30" as="geometry" />
        </mxCell>
        <mxCell id="4zbxxaEPVUc9FG5ekIjv-63" value="3" style="text;html=1;align=center;verticalAlign=middle;resizable=0;points=[];autosize=1;strokeColor=none;fillColor=none;" vertex="1" parent="1">
          <mxGeometry x="522" y="225" width="30" height="30" as="geometry" />
        </mxCell>
        <mxCell id="4zbxxaEPVUc9FG5ekIjv-64" value="256" style="text;html=1;align=center;verticalAlign=middle;resizable=0;points=[];autosize=1;strokeColor=none;fillColor=none;" vertex="1" parent="1">
          <mxGeometry x="555" y="294.5" width="40" height="30" as="geometry" />
        </mxCell>
        <mxCell id="4zbxxaEPVUc9FG5ekIjv-65" value="" style="shape=cube;whiteSpace=wrap;html=1;boundedLbl=1;backgroundOutline=1;darkOpacity=0.05;darkOpacity2=0.1;fillColor=#f8cecc;strokeColor=#b85450;size=10;" vertex="1" parent="1">
          <mxGeometry x="544" y="227" width="20" height="30" as="geometry" />
        </mxCell>
        <mxCell id="4zbxxaEPVUc9FG5ekIjv-67" value="2" style="text;html=1;align=center;verticalAlign=middle;resizable=0;points=[];autosize=1;strokeColor=none;fillColor=none;" vertex="1" parent="1">
          <mxGeometry x="570" y="235" width="30" height="30" as="geometry" />
        </mxCell>
        <mxCell id="4zbxxaEPVUc9FG5ekIjv-68" value="2" style="text;html=1;align=center;verticalAlign=middle;resizable=0;points=[];autosize=1;strokeColor=none;fillColor=none;" vertex="1" parent="1">
          <mxGeometry x="584" y="279.5" width="30" height="30" as="geometry" />
        </mxCell>
        <mxCell id="4zbxxaEPVUc9FG5ekIjv-77" value="" style="shape=cube;whiteSpace=wrap;html=1;boundedLbl=1;backgroundOutline=1;darkOpacity=0.05;darkOpacity2=0.1;size=31;fillColor=#ffe6cc;strokeColor=#d79b00;" vertex="1" parent="1">
          <mxGeometry x="649" y="190" width="40" height="110" as="geometry" />
        </mxCell>
        <mxCell id="4zbxxaEPVUc9FG5ekIjv-78" value="3" style="text;html=1;align=center;verticalAlign=middle;resizable=0;points=[];autosize=1;strokeColor=none;fillColor=none;" vertex="1" parent="1">
          <mxGeometry x="648" y="251.5" width="30" height="30" as="geometry" />
        </mxCell>
        <mxCell id="4zbxxaEPVUc9FG5ekIjv-79" value="3" style="text;html=1;align=center;verticalAlign=middle;resizable=0;points=[];autosize=1;strokeColor=none;fillColor=none;" vertex="1" parent="1">
          <mxGeometry x="630" y="221.5" width="30" height="30" as="geometry" />
        </mxCell>
        <mxCell id="4zbxxaEPVUc9FG5ekIjv-80" value="512" style="text;html=1;align=center;verticalAlign=middle;resizable=0;points=[];autosize=1;strokeColor=none;fillColor=none;" vertex="1" parent="1">
          <mxGeometry x="664" y="294" width="40" height="30" as="geometry" />
        </mxCell>
        <mxCell id="4zbxxaEPVUc9FG5ekIjv-81" value="" style="shape=cube;whiteSpace=wrap;html=1;boundedLbl=1;backgroundOutline=1;darkOpacity=0.05;darkOpacity2=0.1;fillColor=#f8cecc;strokeColor=#b85450;size=10;" vertex="1" parent="1">
          <mxGeometry x="653" y="231" width="20" height="30" as="geometry" />
        </mxCell>
        <mxCell id="4zbxxaEPVUc9FG5ekIjv-83" value="2" style="text;html=1;align=center;verticalAlign=middle;resizable=0;points=[];autosize=1;strokeColor=none;fillColor=none;" vertex="1" parent="1">
          <mxGeometry x="682" y="235" width="30" height="30" as="geometry" />
        </mxCell>
        <mxCell id="4zbxxaEPVUc9FG5ekIjv-84" value="2" style="text;html=1;align=center;verticalAlign=middle;resizable=0;points=[];autosize=1;strokeColor=none;fillColor=none;" vertex="1" parent="1">
          <mxGeometry x="697" y="280" width="30" height="30" as="geometry" />
        </mxCell>
        <mxCell id="4zbxxaEPVUc9FG5ekIjv-100" value="256" style="text;html=1;align=center;verticalAlign=middle;resizable=0;points=[];autosize=1;strokeColor=none;fillColor=none;" vertex="1" parent="1">
          <mxGeometry x="750" y="229" width="40" height="30" as="geometry" />
        </mxCell>
        <mxCell id="4zbxxaEPVUc9FG5ekIjv-105" value="" style="shape=cube;whiteSpace=wrap;html=1;boundedLbl=1;backgroundOutline=1;darkOpacity=0.05;darkOpacity2=0.1;fillColor=#d5e8d4;strokeColor=#82b366;size=30;" vertex="1" parent="1">
          <mxGeometry x="365" y="190.5" width="40" height="110" as="geometry" />
        </mxCell>
        <mxCell id="4zbxxaEPVUc9FG5ekIjv-106" value="" style="shape=cube;whiteSpace=wrap;html=1;boundedLbl=1;backgroundOutline=1;darkOpacity=0.05;darkOpacity2=0.1;fillColor=#d5e8d4;strokeColor=#82b366;size=30;" vertex="1" parent="1">
          <mxGeometry x="480" y="190" width="40" height="110" as="geometry" />
        </mxCell>
        <mxCell id="4zbxxaEPVUc9FG5ekIjv-108" value="" style="shape=cube;whiteSpace=wrap;html=1;boundedLbl=1;backgroundOutline=1;darkOpacity=0.05;darkOpacity2=0.1;fillColor=#d5e8d4;strokeColor=#82b366;size=30;" vertex="1" parent="1">
          <mxGeometry x="595" y="190.5" width="40" height="110" as="geometry" />
        </mxCell>
        <mxCell id="4zbxxaEPVUc9FG5ekIjv-109" value="" style="shape=cube;whiteSpace=wrap;html=1;boundedLbl=1;backgroundOutline=1;darkOpacity=0.05;darkOpacity2=0.1;fillColor=#d5e8d4;strokeColor=#82b366;size=30;" vertex="1" parent="1">
          <mxGeometry x="704" y="190.5" width="40" height="110" as="geometry" />
        </mxCell>
        <mxCell id="4zbxxaEPVUc9FG5ekIjv-110" value="Dropout" style="text;html=1;align=center;verticalAlign=middle;resizable=0;points=[];autosize=1;strokeColor=none;fillColor=none;" vertex="1" parent="1">
          <mxGeometry x="1011" y="354.5" width="70" height="30" as="geometry" />
        </mxCell>
        <mxCell id="4zbxxaEPVUc9FG5ekIjv-111" value="" style="shape=cube;whiteSpace=wrap;html=1;boundedLbl=1;backgroundOutline=1;darkOpacity=0.05;darkOpacity2=0.1;size=10;fillColor=#f8cecc;strokeColor=#b85450;gradientColor=#ea6b66;" vertex="1" parent="1">
          <mxGeometry x="992" y="354.5" width="30" height="30" as="geometry" />
        </mxCell>
        <mxCell id="4zbxxaEPVUc9FG5ekIjv-113" value="" style="shape=cube;whiteSpace=wrap;html=1;boundedLbl=1;backgroundOutline=1;darkOpacity=0.05;darkOpacity2=0.1;size=10;fillColor=#f8cecc;strokeColor=#b85450;gradientColor=#ea6b66;" vertex="1" parent="1">
          <mxGeometry x="841" y="148.5" width="20" height="200" as="geometry" />
        </mxCell>
        <mxCell id="4zbxxaEPVUc9FG5ekIjv-114" value="" style="shape=cube;whiteSpace=wrap;html=1;boundedLbl=1;backgroundOutline=1;darkOpacity=0.05;darkOpacity2=0.1;size=10;fillColor=#f5f5f5;strokeColor=#666666;gradientColor=#b3b3b3;" vertex="1" parent="1">
          <mxGeometry x="827" y="147.5" width="20" height="200" as="geometry" />
        </mxCell>
        <mxCell id="4zbxxaEPVUc9FG5ekIjv-115" value="" style="shape=cube;whiteSpace=wrap;html=1;boundedLbl=1;backgroundOutline=1;darkOpacity=0.05;darkOpacity2=0.1;size=10;fillColor=#f8cecc;strokeColor=#b85450;gradientColor=#ea6b66;" vertex="1" parent="1">
          <mxGeometry x="813" y="147.5" width="20" height="200" as="geometry" />
        </mxCell>
        <mxCell id="4zbxxaEPVUc9FG5ekIjv-116" value="" style="shape=cube;whiteSpace=wrap;html=1;boundedLbl=1;backgroundOutline=1;darkOpacity=0.05;darkOpacity2=0.1;size=10;fillColor=#bac8d3;strokeColor=#23445d;" vertex="1" parent="1">
          <mxGeometry x="799" y="147.5" width="20" height="200" as="geometry" />
        </mxCell>
        <mxCell id="4zbxxaEPVUc9FG5ekIjv-117" value="" style="shape=cube;whiteSpace=wrap;html=1;boundedLbl=1;backgroundOutline=1;darkOpacity=0.05;darkOpacity2=0.1;size=10;fillColor=#d80073;fontColor=#ffffff;strokeColor=#A50040;" vertex="1" parent="1">
          <mxGeometry x="784" y="147.5" width="20" height="200" as="geometry" />
        </mxCell>
        <mxCell id="4zbxxaEPVUc9FG5ekIjv-118" value="1" style="text;html=1;align=center;verticalAlign=middle;resizable=0;points=[];autosize=1;strokeColor=none;fillColor=none;" vertex="1" parent="1">
          <mxGeometry x="779" y="344.5" width="30" height="30" as="geometry" />
        </mxCell>
        <mxCell id="4zbxxaEPVUc9FG5ekIjv-119" value="0.5" style="text;html=1;align=center;verticalAlign=middle;resizable=0;points=[];autosize=1;strokeColor=none;fillColor=none;" vertex="1" parent="1">
          <mxGeometry x="833" y="128.5" width="35" height="26" as="geometry" />
        </mxCell>
        <mxCell id="4zbxxaEPVUc9FG5ekIjv-120" value="0.5" style="text;html=1;align=center;verticalAlign=middle;resizable=0;points=[];autosize=1;strokeColor=none;fillColor=none;" vertex="1" parent="1">
          <mxGeometry x="799" y="128.5" width="35" height="26" as="geometry" />
        </mxCell>
      </root>
    </mxGraphModel>
  </diagram>
</mxfile>
